<?xml version="1.0" standalone="no"?>
<!DOCTYPE svg PUBLIC "-//W3C//DTD SVG 20010904//EN"
 "http://www.w3.org/TR/2001/REC-SVG-20010904/DTD/svg10.dtd">
<svg version="1.0" xmlns="http://www.w3.org/2000/svg"
 width="170.000000pt" height="170.000000pt" viewBox="0 0 170.000000 170.000000"
 preserveAspectRatio="xMidYMid meet">
<metadata>
Created by potrace 1.14, written by Peter Selinger 2001-2017
</metadata>
<g transform="translate(0.000000,170.000000) scale(0.100000,-0.100000)"
fill="#000000" stroke="none">
<path d="M536 1488 c-9 -12 -16 -39 -16 -58 0 -53 -18 -145 -45 -230 -13 -41
-43 -145 -66 -230 l-42 -155 -8 -235 c-6 -210 -10 -245 -33 -328 -30 -108 -31
-125 -11 -142 18 -15 44 2 43 28 0 9 12 60 27 112 23 80 28 121 32 253 5 156
6 159 27 152 11 -4 76 -10 143 -12 101 -4 123 -8 129 -22 3 -9 10 -92 15 -186
9 -182 20 -255 44 -292 18 -26 28 -29 43 -10 8 9 7 25 -4 57 -10 27 -21 124
-29 240 -8 107 -19 211 -24 230 -6 19 -11 73 -11 120 0 47 -5 101 -11 120 -6
19 -17 91 -24 160 -19 179 -112 450 -155 450 -5 0 -16 -10 -24 -22z m64 -169
c0 -9 9 -42 21 -75 11 -32 27 -115 35 -184 8 -69 21 -146 30 -172 11 -35 13
-65 8 -119 l-7 -71 -128 4 c-70 1 -131 7 -135 11 -11 11 37 223 101 447 13 47
30 119 36 160 12 73 13 74 25 45 7 -17 13 -37 14 -46z"/>
<path d="M930 1475 c-10 -12 -11 -92 -5 -377 6 -325 9 -376 31 -491 13 -70 22
-138 19 -150 -3 -12 1 -58 9 -101 13 -78 13 -80 -8 -97 -20 -16 -20 -18 -3
-36 9 -11 17 -27 17 -35 0 -9 7 -21 15 -28 20 -16 45 3 45 34 0 21 7 23 101
34 119 14 172 35 227 90 48 48 58 91 49 215 -5 71 -11 92 -61 193 -81 167
-111 194 -298 273 -27 11 -48 25 -48 30 0 6 25 18 55 26 95 28 100 37 99 157
0 57 -5 112 -10 120 -12 22 -143 108 -164 108 -8 0 -20 10 -25 22 -13 28 -29
33 -45 13z m122 -122 c32 -21 61 -47 64 -58 3 -11 4 -54 2 -95 l-3 -75 -60
-21 c-33 -12 -63 -20 -67 -17 -10 5 -11 303 -1 303 3 0 33 -17 65 -37z m50
-428 c99 -39 147 -87 209 -208 l53 -102 4 -116 4 -115 -38 -33 c-49 -44 -90
-60 -167 -67 -34 -3 -74 -7 -89 -9 -25 -4 -27 -2 -37 59 -6 34 -11 90 -11 123
0 34 -9 105 -20 160 -14 68 -20 138 -20 231 l0 132 23 -14 c12 -8 52 -27 89
-41z"/>
</g>
</svg>
